<svg width="1200" height="900" viewBox="0 0 1200 900" fill="none" xmlns="http://www.w3.org/2000/svg">
  <rect width="1200" height="900" rx="42" fill="#F8F3EB"/>
  <path d="M120 694C260 530 382 442 486 430C590 418 692 480 792 450C892 420 992 316 1080 160" stroke="#0F5F66" stroke-width="20" stroke-linecap="round"/>
  <circle cx="200" cy="622" r="34" fill="#D97A43"/>
  <circle cx="454" cy="450" r="34" fill="#D97A43"/>
  <circle cx="732" cy="456" r="34" fill="#D97A43"/>
  <circle cx="980" cy="264" r="34" fill="#D97A43"/>
  <rect x="144" y="686" width="170" height="72" rx="20" fill="#FFF9F2"/>
  <rect x="376" y="510" width="210" height="72" rx="20" fill="#FFF9F2"/>
  <rect x="648" y="516" width="202" height="72" rx="20" fill="#FFF9F2"/>
  <rect x="884" y="326" width="188" height="72" rx="20" fill="#FFF9F2"/>
  <text x="229" y="731" text-anchor="middle" fill="#162126" font-family="Arial, sans-serif" font-size="28" font-weight="700">Foundation</text>
  <text x="481" y="555" text-anchor="middle" fill="#162126" font-family="Arial, sans-serif" font-size="28" font-weight="700">Experience</text>
  <text x="749" y="561" text-anchor="middle" fill="#162126" font-family="Arial, sans-serif" font-size="28" font-weight="700">Specialize</text>
  <text x="978" y="371" text-anchor="middle" fill="#162126" font-family="Arial, sans-serif" font-size="28" font-weight="700">Ownership</text>
  <text x="600" y="830" text-anchor="middle" fill="#51626B" font-family="Arial, sans-serif" font-size="42" font-weight="700">Replace with your own career roadmap graphic if desired</text>
</svg>
